M48
METRIC,TZ
T1C0.800
T2C1.000
T3C1.001
T4C1.016
%
G90
G05
T1
X3258Y52422
X3258Y44802
X5798Y52422
X5798Y44802
X6597Y96373
X6597Y93833
X6597Y91293
X6597Y88753
X6597Y86213
X6597Y83673
X6597Y81133
X6597Y78593
X6597Y76053
X6597Y73513
X8338Y52422
X8338Y44802
X10878Y52422
X10878Y44802
X13418Y52422
X13418Y44802
X15958Y52422
X15958Y44802
X18498Y52422
X18498Y44802
X24470Y110070
X27010Y110070
X28140Y13130
X28140Y2970
X29550Y110070
X32090Y110070
X34630Y110070
X37170Y110070
X48300Y3050
X48460Y13130
X61030Y77900
X61030Y70280
X63570Y77900
X63570Y70280
X66110Y77900
X66110Y70280
X68650Y77900
X68650Y70280
T2
X5167Y61248
X7707Y61248
X10247Y61248
X10308Y32652
X12787Y61248
X12848Y32652
X19750Y56700
X26818Y97858
X26818Y95318
X26818Y92778
X26818Y90238
X26818Y87698
X26818Y85158
X26818Y82618
X26818Y80078
X26818Y77538
X26818Y74998
X26818Y72458
X26818Y69918
X26818Y67378
X26818Y64838
X26818Y62298
X33200Y56450
X42650Y118700
X42950Y106850
X44300Y67450
X44400Y62100
X46950Y67400
X46950Y59200
X47050Y100700
X47350Y116350
X47350Y113810
X47350Y111270
X47350Y108730
X50818Y97858
X50818Y95318
X50818Y92778
X50818Y90238
X50818Y87698
X50818Y85158
X50818Y82618
X50818Y80078
X50818Y77538
X50818Y74998
X50818Y72458
X50818Y69918
X50818Y67378
X50818Y64838
X50818Y62298
X55750Y48300
X57750Y48300
X57900Y100700
X59750Y48300
X61750Y48300
X61900Y86100
X62520Y92700
X63680Y64350
X63750Y58550
X63750Y48300
X65060Y92700
X65750Y48300
X66220Y64350
X66290Y58550
X67600Y92700
X68760Y64350
X71300Y64350
X71800Y86300
T3
X71300Y48950
X71300Y41330
T4
X38500Y104100
X38500Y18100
T0
M30
